<svg width="60" height="21" viewBox="0 0 60 21" fill="none" xmlns="http://www.w3.org/2000/svg">
<mask id="mask0_0_262" style="mask-type:luminance" maskUnits="userSpaceOnUse" x="0" y="0" width="60" height="21">
<path fill-rule="evenodd" clip-rule="evenodd" d="M45.1619 2.19673C45.1619 3.01102 45.829 3.67056 46.654 3.67056C47.4769 3.67056 48.1452 3.01102 48.1452 2.19673C48.1452 1.38451 47.4769 0.724976 46.654 0.724976C45.829 0.724976 45.1619 1.38451 45.1619 2.19673ZM52.1366 1.70753V5.77797H50.1193V6.7626H52.1366V16.0418C52.1366 18.8285 53.251 20.3574 55.8175 20.3574C57.6275 20.3574 58.5272 19.5389 59.0418 18.8368C59.0713 18.7994 59.086 18.7506 59.086 18.7018C59.086 18.5304 58.9061 18.4182 58.7545 18.4972C58.3589 18.7007 57.8401 18.8742 57.0614 18.8742C55.3103 18.8742 55.0409 17.4357 55.0409 15.6669V6.7626H59.086V5.77797H55.0409V1.70753H52.1366ZM33.335 7.82305C33.3034 7.86252 33.2866 7.91237 33.2866 7.96327C33.2866 8.13153 33.4676 8.23539 33.6117 8.14918C34.4778 7.63194 35.3312 7.34216 36.2909 7.34216C38.3177 7.34216 39.1953 8.42235 39.1953 10.2919V20.0852H42.1333V9.75388C42.1333 7.17078 40.7148 5.50584 38.0135 5.50584C36.1541 5.50584 34.3263 6.62342 33.335 7.82305ZM4.17028 7.82305C4.13766 7.86252 4.12082 7.91237 4.12082 7.96327C4.12082 8.13153 4.30392 8.23539 4.44704 8.14918C5.31203 7.63194 6.16651 7.34216 7.12726 7.34216C9.1519 7.34216 10.0295 8.42235 10.0295 10.2919V20.0852H12.9676V9.75388C12.9676 7.17078 11.5491 5.50584 8.84884 5.50584C6.98836 5.50584 5.1605 6.62342 4.17028 7.82305ZM22.1226 5.51C19.5171 5.54427 16.6506 6.72625 16.6001 8.61034C16.578 9.45476 17.16 10.1756 17.9902 10.3044C19.0215 10.4664 19.9096 9.66768 19.9096 8.66123C19.9096 7.98819 19.515 7.40967 18.9447 7.14793C18.771 7.06796 18.7995 6.80934 18.9847 6.76883C19.655 6.61719 20.4516 6.58811 21.2829 6.67847C22.6656 6.83219 23.7053 8.02455 23.7053 9.42567V20.0852H26.6423V9.27819C26.6423 6.59434 24.8534 5.50688 22.2879 5.50688C22.2321 5.50688 22.1774 5.50792 22.1226 5.51ZM45.1976 20.0853H48.102V5.77797H45.1976V20.0853ZM29.573 20.0853H32.5089V5.77797H29.573V20.0853ZM0.407227 20.0853H3.34527V5.77797H0.407227V20.0853ZM22.573 12.1552C20.843 12.5821 18.8373 13.0869 18.1333 13.3746C16.9527 13.8846 15.5341 14.784 15.5341 16.8904C15.5341 18.5917 16.6149 20.3574 19.2141 20.3574C21.1009 20.3574 22.23 19.271 22.833 18.4359C22.8719 18.3788 22.8793 18.305 22.8529 18.2396C22.8035 18.116 22.6499 18.0755 22.5425 18.1565C22.07 18.5169 21.4323 18.8732 20.4968 18.8732C18.8773 18.8732 18.3701 17.8428 18.3701 16.4157C18.3701 15.3688 19.0362 14.4984 19.5424 14.1577C20.2864 13.7028 21.5449 13.0048 22.7025 12.5894C22.8151 12.5489 22.8866 12.4346 22.8519 12.311C22.8256 12.2103 22.7309 12.148 22.6309 12.148C22.612 12.148 22.592 12.1511 22.573 12.1552Z" fill="white"/>
</mask>
<g mask="url(#mask0_0_262)">
<path fill-rule="evenodd" clip-rule="evenodd" d="M-4.56592 27.266H64.0582V-2.18364H-4.56592V27.266Z" fill="#394562"/>
</g>
</svg>
