<svg width="63" height="90" viewBox="0 0 63 90" fill="none" xmlns="http://www.w3.org/2000/svg">
<path fill-rule="evenodd" clip-rule="evenodd" d="M22.915 62.3207C23.036 67.8867 26.666 70.6707 32.475 70.6707C38.403 70.6707 41.671 66.1927 41.792 60.5057C41.671 48.2847 29.57 48.7687 20.374 49.1317V46.2277L31.627 22.7537H7.18497V3.51367H61.031V6.65967L45.422 35.2167C58.853 38.6037 62.725 49.4947 62.725 60.3847C62.846 74.7837 52.561 89.9097 32.958 89.9097C26.545 89.9097 21.947 88.5787 17.833 86.2797C9.84697 81.8017 3.91797 73.2117 3.91797 62.3207H22.915Z" fill="#25304A"/>
<path fill-rule="evenodd" clip-rule="evenodd" d="M29.7079 81.9096C24.6419 81.9096 20.7289 80.9856 17.0209 78.9146C11.3859 75.7556 7.54893 70.4936 6.20093 64.3206H15.5339C17.4369 69.5726 22.3469 72.6706 29.2249 72.6706C37.4649 72.6706 43.3529 66.4776 43.5409 57.6116L43.5419 57.4556C43.4369 46.9326 36.7719 41.4086 23.7269 41.0206L36.3179 14.7536H8.93493V5.51361H51.0689L34.6869 35.4846L40.9489 37.0646C50.0509 39.3596 54.4749 46.0076 54.4749 57.3856C54.5299 64.0816 51.9839 70.4986 47.4879 75.0316C43.0269 79.5316 36.8789 81.9096 29.7079 81.9096Z" fill="white"/>
<path fill-rule="evenodd" clip-rule="evenodd" d="M12.042 10.3071H42.655L28.619 37.6541C40.356 37.6541 48.101 43.9461 48.343 57.2551C48.101 67.9041 39.873 76.3741 29.104 76.4951C21.359 76.4951 14.704 72.7441 12.284 66.5731H11.074C13.736 73.2281 20.633 77.5841 28.982 77.5841C40.478 77.4631 49.189 68.5091 49.432 57.2551C49.432 45.1561 41.809 36.8061 30.192 36.8061L44.592 9.3391H12.042V10.3071ZM19.665 59.0711C19.786 64.6371 23.416 67.4201 29.225 67.4201C35.153 67.4201 38.421 62.9431 38.542 57.2551C38.421 45.0351 26.32 45.5191 17.124 45.8811V42.9781L28.377 19.5031H3.93497V0.264099H57.781V3.4101L42.172 31.9661C55.603 35.3541 59.475 46.2451 59.475 57.1351C59.596 71.5341 49.311 86.6601 29.708 86.6601C23.295 86.6601 18.697 85.3281 14.583 83.0301C6.59697 78.5521 0.667969 69.9611 0.667969 59.0711H19.665Z" fill="#EF7B7B"/>
</svg>
