<svg width="63" height="90" viewBox="0 0 63 90" fill="none" xmlns="http://www.w3.org/2000/svg">
<path fill-rule="evenodd" clip-rule="evenodd" d="M23.9424 32.433C43.6654 31.223 62.7844 35.216 62.9054 60.385C63.0254 74.905 52.7404 89.91 33.1384 89.91C17.0454 89.91 5.3074 79.503 4.5824 62.321H23.2154C23.3374 67.887 26.9664 70.791 32.6544 70.791C38.5834 70.791 42.2134 67.282 42.3354 60.385C42.0924 55.303 39.4304 52.641 34.7114 51.31C26.1204 48.769 12.3264 50.583 6.0344 50.704V3.51404H58.7914V21.906H23.9424V32.433Z" fill="#25304A"/>
<path fill-rule="evenodd" clip-rule="evenodd" d="M29.8887 81.9096C17.7637 81.9096 9.35374 75.2986 6.97974 64.3206H15.8447C17.7637 69.5916 22.6917 72.7916 29.4047 72.7916C38.2927 72.7916 43.9177 66.9216 44.0837 57.4726L44.0867 57.3096L44.0787 57.1466C43.8487 52.3046 41.7067 46.0046 32.8187 43.4976C29.3497 42.4716 24.8957 41.9646 19.2627 41.9646C15.2227 41.9646 11.1577 42.2236 7.89074 42.4326C7.85574 42.4346 7.81974 42.4376 7.78474 42.4396V5.51361H50.5407V13.9056H15.6927V34.7496L20.9987 34.4236C22.9617 34.3036 24.8517 34.2416 26.6147 34.2416C46.1917 34.2416 54.5767 41.1706 54.6557 57.4096C54.7107 64.1086 52.1747 70.5306 47.6977 75.0456C43.2437 79.5356 37.0857 81.9096 29.8887 81.9096Z" fill="white"/>
<path fill-rule="evenodd" clip-rule="evenodd" d="M11.0117 8.85492V38.2579C26.1377 37.6539 48.1587 35.3539 48.4017 57.1349C48.2807 67.9039 39.9317 76.3749 29.1617 76.4959C21.5387 76.6159 14.8837 72.6239 12.5847 66.4519H11.3747C13.7947 73.2279 20.8137 77.5839 29.1617 77.4629C40.5357 77.4629 49.4907 68.5089 49.4907 57.1349C49.4907 35.2339 27.8307 36.0809 12.1007 37.1689V9.94392H47.7967V8.85492H11.0117ZM20.6927 29.4249C40.4147 28.2149 59.5337 31.9659 59.6557 57.1349C59.7757 71.6549 49.4907 86.6599 29.8887 86.6599C23.3547 86.6599 18.7557 85.3289 14.7627 83.1499C6.89769 78.6729 0.847685 70.0829 0.726685 59.0709H19.9657C20.0867 64.6369 23.7167 67.2989 29.4047 67.2989C35.3327 67.2989 38.6007 62.9429 38.7217 57.1349C37.8737 42.7359 12.5847 47.2119 2.78368 47.4549V0.263916H55.5407V18.6559H20.6927V29.4249Z" fill="#EF7B7B"/>
</svg>
