<svg width="67" height="92" viewBox="0 0 67 92" fill="none" xmlns="http://www.w3.org/2000/svg">
<path fill-rule="evenodd" clip-rule="evenodd" d="M46.2734 62.2641V33.4651C46.2734 26.8101 41.3114 23.3011 34.8984 23.3011C28.7274 23.3011 23.8874 26.8101 23.8874 33.4651V62.2641C23.8874 69.1601 28.7274 72.6701 34.8984 72.6701C41.3114 72.6701 46.2734 69.1601 46.2734 62.2641ZM66.7224 33.1021V62.7471C66.7224 81.2611 52.4444 91.9101 34.8984 91.9101C17.7164 91.9101 3.31738 81.2611 3.31738 62.7471V33.1021C3.31738 14.5891 17.7164 3.9411 34.8984 3.9411C52.4444 3.9411 66.7224 14.5891 66.7224 33.1021Z" fill="#25304A"/>
<path fill-rule="evenodd" clip-rule="evenodd" d="M31.6484 15.3012C22.2214 15.3012 15.6374 21.5362 15.6374 30.4652V59.2642C15.6374 68.4792 22.0724 74.6702 31.6484 74.6702C41.4424 74.6702 48.0234 68.4792 48.0234 59.2642V30.4652C48.0234 21.5362 41.2904 15.3012 31.6484 15.3012ZM31.6484 83.9092C18.4184 83.9092 5.06738 76.4392 5.06738 59.7472V30.1022C5.06738 13.4112 18.4184 5.94122 31.6484 5.94122C45.0004 5.94122 58.4724 13.4112 58.4724 30.1022V59.7472C58.4724 76.4392 45.0004 83.9092 31.6484 83.9092Z" fill="white"/>
<path fill-rule="evenodd" clip-rule="evenodd" d="M43.0234 59.0141V30.2151C43.0234 23.5601 38.0614 20.0511 31.6484 20.0511C25.4774 20.0511 20.6374 23.5601 20.6374 30.2151V59.0141C20.6374 65.9101 25.4774 69.4201 31.6484 69.4201C38.0614 69.4201 43.0234 65.9101 43.0234 59.0141ZM52.4614 30.2151V59.0141C52.4614 71.3561 43.2644 78.4951 31.6484 78.4951C20.3954 78.4951 10.9574 71.3561 10.9574 59.0141V30.2151C10.9574 17.7521 20.3954 10.8551 31.6484 10.8551C43.2644 10.8551 52.4614 17.7521 52.4614 30.2151ZM53.9134 59.0141V30.2151C53.9134 17.1471 43.8704 9.7661 31.6484 9.7661C19.7914 9.7661 9.62638 17.1471 9.62638 30.2151V59.0141C9.62638 71.9611 19.7914 79.5841 31.6484 79.5841C43.8704 79.5841 53.9134 71.9611 53.9134 59.0141ZM63.4724 29.8521V59.4971C63.4724 78.0111 49.1944 88.6601 31.6484 88.6601C14.4664 88.6601 0.0673828 78.0111 0.0673828 59.4971V29.8521C0.0673828 11.3391 14.4664 0.691101 31.6484 0.691101C49.1944 0.691101 63.4724 11.3391 63.4724 29.8521Z" fill="#EF7B7B"/>
</svg>
