<svg width="52" height="46" viewBox="0 0 52 46" fill="none" xmlns="http://www.w3.org/2000/svg">
<g id="Left swirls">
<path id="Stroke 1" d="M6.41488 9.9202C7.54688 11.9562 10.1139 12.6902 12.1489 11.5592C14.6939 10.1452 15.6109 6.9362 14.1979 4.3912C12.4309 1.2092 8.41888 0.0632001 5.23688 1.8302C1.26188 4.0392 -0.171118 9.0542 2.03788 13.0302C4.79888 18.0012 13.0189 19.0302 18.7039 19.0302H51.2039" stroke="#394562" stroke-linecap="round" stroke-linejoin="round"/>
<path id="Stroke 3" d="M6.41488 35.6106C7.54688 33.5746 10.1139 32.8406 12.1489 33.9716C14.6939 35.3856 15.6109 38.5946 14.1979 41.1396C12.4309 44.3216 8.41888 45.4666 5.23688 43.7006C1.26188 41.4906 -0.171118 36.4766 2.03788 32.5006C4.79888 27.5296 13.0189 26.5006 18.7039 26.5006H51.2039" stroke="#394562" stroke-linecap="round" stroke-linejoin="round"/>
</g>
</svg>
