<svg width="208" height="208" viewBox="0 0 208 208" fill="none" xmlns="http://www.w3.org/2000/svg">
<path fill-rule="evenodd" clip-rule="evenodd" d="M204.175 103.587C204.175 158.588 159.588 203.175 104.587 203.175C49.5873 203.175 5 158.588 5 103.587C5 48.5873 49.5873 4 104.587 4C159.588 4 204.175 48.5873 204.175 103.587Z" fill="#A9DCCF"/>
<path fill-rule="evenodd" clip-rule="evenodd" d="M104.13 156.522C133.617 156.522 157.521 132.619 157.521 103.132C157.521 73.6448 133.617 49.7399 104.13 49.7399C74.6431 49.7399 50.74 73.6448 50.74 103.132C50.74 132.619 74.6431 156.522 104.13 156.522Z" stroke="#6FC5AF" stroke-width="5.38117"/>
<path d="M69.574 104.039C69.574 104.039 72.8708 101.758 79.2816 101.758C85.6933 101.758 88.9883 104.039 88.9883 104.039" stroke="#6FC5AF" stroke-width="5.38117" stroke-linecap="round"/>
<path d="M115.139 125.076C115.139 125.076 110.427 129.379 104.016 129.379C97.6047 129.379 92.8926 125.076 92.8926 125.076" stroke="#6FC5AF" stroke-width="5.38117" stroke-linecap="round"/>
<path d="M118.005 104.039C118.005 104.039 121.301 101.758 127.712 101.758C134.124 101.758 137.419 104.039 137.419 104.039" stroke="#6FC5AF" stroke-width="5.38117" stroke-linecap="round"/>
<path d="M102.851 51.5336C102.851 51.5336 95.7867 60.0879 99.2101 64.8816C102.634 69.6753 111.345 70.948 114.985 68.5211" stroke="#6FC5AF" stroke-width="5.38117" stroke-linecap="round"/>
<circle opacity="0.78" cx="104" cy="104" r="100" stroke="#6FC5AF" stroke-width="7"/>
</svg>
