<svg width="107" height="89" viewBox="0 0 107 89" fill="none" xmlns="http://www.w3.org/2000/svg">
<path fill-rule="evenodd" clip-rule="evenodd" d="M5.06532 21.059V3.51404H37.6153V70.549H50.4413V88.215H3.97632V70.549H16.5603V21.059H5.06532Z" fill="#25304A"/>
<path fill-rule="evenodd" clip-rule="evenodd" d="M5.72656 80.2153V72.5493H18.3106V13.0593H6.81556V5.51428H29.3656V72.5493H42.1916V80.2153H5.72656Z" fill="white"/>
<path fill-rule="evenodd" clip-rule="evenodd" d="M24.3212 8.49161H9.80124V9.45961H23.2322V75.7686H8.10724V76.7366H39.6882V75.7686H24.3212V8.49161ZM1.81524 18.5346V0.263611H34.3652V66.5726H47.7962V84.9656H0.000244141V66.5726H13.3102V18.5346H1.81524Z" fill="#EF7B7B"/>
<path fill-rule="evenodd" clip-rule="evenodd" d="M61.0653 21.059V3.51404H93.6153V70.549H106.441V88.215H59.9763V70.549H72.5603V21.059H61.0653Z" fill="#25304A"/>
<path fill-rule="evenodd" clip-rule="evenodd" d="M61.7266 80.2153V72.5493H74.3106V13.0593H62.8156V5.51428H85.3656V72.5493H98.1916V80.2153H61.7266Z" fill="white"/>
<path fill-rule="evenodd" clip-rule="evenodd" d="M80.3212 8.49161H65.8012V9.45961H79.2322V75.7686H64.1072V76.7366H95.6882V75.7686H80.3212V8.49161ZM57.8152 18.5346V0.263611H90.3652V66.5726H103.796V84.9656H56.0002V66.5726H69.3102V18.5346H57.8152Z" fill="#EF7B7B"/>
</svg>
