<svg width="24" height="24" viewBox="0 0 24 24" fill="none" xmlns="http://www.w3.org/2000/svg">
<path fill-rule="evenodd" clip-rule="evenodd" d="M3.21967 12.9979C2.92678 12.705 2.92678 12.2301 3.21967 11.9372L9.93718 5.21969C10.2301 4.9268 10.705 4.9268 10.9978 5.21969C11.2907 5.51259 11.2907 5.98746 10.9978 6.28035L5.5 11.7782H20C20.4142 11.7782 20.75 12.114 20.75 12.5282C20.75 12.9424 20.4142 13.2782 20 13.2782H5.62132L11.0585 18.7154C11.3514 19.0083 11.3514 19.4831 11.0585 19.776C10.7656 20.0689 10.2907 20.0689 9.99784 19.776L3.28033 13.0585C3.27015 13.0483 3.26033 13.0379 3.25085 13.0273C3.24025 13.0179 3.22985 13.008 3.21967 12.9979Z" fill="#394562"/>
</svg>
