<svg width="68" height="91" viewBox="0 0 68 91" fill="none" xmlns="http://www.w3.org/2000/svg">
<path fill-rule="evenodd" clip-rule="evenodd" d="M24.8116 32.3442C24.8116 38.5152 29.0466 42.9922 35.4596 42.9922C42.4776 42.9922 46.1086 38.8782 46.1086 32.3442C46.1086 26.4152 42.1156 21.8172 35.4596 21.8172C29.0466 21.8172 24.8116 26.4152 24.8116 32.3442ZM14.7686 90.0622L32.7976 59.4482C14.8896 60.7802 3.27356 48.4382 3.27356 32.3442C3.27356 12.3792 16.8256 3.3042 35.4596 3.3042C53.9726 3.3042 68.0096 12.3792 68.0096 32.3442C68.0096 38.1532 66.9196 44.0812 63.5326 49.0422L38.8476 90.0622H14.7686Z" fill="#25304A"/>
<path fill-rule="evenodd" clip-rule="evenodd" d="M32.2101 13.8168C23.2891 13.8168 16.5621 20.4928 16.5621 29.3438C16.5621 38.4118 23.1431 44.9928 32.2101 44.9928C41.7161 44.9928 47.8581 38.8498 47.8581 29.3438C47.8581 20.3468 41.2771 13.8168 32.2101 13.8168ZM20.2661 82.0618L38.7041 50.7548L29.1771 51.4628C28.4221 51.5188 27.6671 51.5468 26.9321 51.5468C20.4221 51.5468 14.8911 49.3618 10.9361 45.2258C7.12307 41.2398 5.02307 35.5988 5.02307 29.3438C5.02307 18.3778 9.74007 5.30377 32.2101 5.30377C42.4991 5.30377 59.7601 8.42677 59.7601 29.3438C59.7601 35.1288 58.5801 39.6688 56.1531 43.2228L56.0721 43.3408L32.7721 82.0618H20.2661Z" fill="white"/>
<path fill-rule="evenodd" clip-rule="evenodd" d="M21.5616 29.0942C21.5616 35.9912 25.0706 39.7422 32.2096 39.7422C39.5906 39.7422 42.8586 35.9912 42.8586 29.0942C42.8586 22.4392 39.5906 18.5672 32.2096 18.5672C25.0706 18.5672 21.5616 22.4392 21.5616 29.0942ZM11.2766 29.0942C11.2766 17.1152 20.5936 10.2182 32.2096 10.2182C43.9476 10.2182 53.0226 17.1152 53.0226 29.0942C53.0226 41.1952 43.9476 47.9702 32.2096 47.9702C20.5936 47.9702 11.2766 41.1952 11.2766 29.0942ZM32.2096 49.1802C37.7756 49.1802 43.0996 47.3652 47.0926 44.5822L47.2136 44.7032C40.5586 56.0772 33.7836 67.6942 27.1276 79.0682H28.5806L51.2076 40.1062C53.2636 36.5962 54.2326 33.4502 54.2326 29.0942C54.2326 16.5102 44.6726 9.1292 32.2096 9.1292C19.8676 9.1292 10.3086 16.5102 10.3086 29.0942C10.3086 41.7992 19.9886 49.1802 32.2096 49.1802ZM11.5186 86.8122L29.5476 56.1982C11.6396 57.5302 0.0235596 47.0022 0.0235596 29.0942C0.0235596 9.1292 13.5756 0.0541992 32.2096 0.0541992C50.7226 0.0541992 64.7596 9.1292 64.7596 29.0942C64.7596 34.9032 63.6696 40.8312 60.2826 45.7922L35.5976 86.8122H11.5186Z" fill="#EF7B7B"/>
</svg>
