<svg width="63" height="91" viewBox="0 0 63 91" fill="none" xmlns="http://www.w3.org/2000/svg">
<path fill-rule="evenodd" clip-rule="evenodd" d="M32.0781 23.5434C27.2381 23.5434 23.7291 25.8424 23.7291 31.7714H5.33715C5.09515 13.4994 17.4371 4.54539 32.4411 4.18339C56.7631 3.57739 67.4111 27.6564 54.8271 47.1384L37.7651 70.8554H62.9331V90.2154H3.40015V86.9484L35.2241 40.3624C39.4591 34.6754 42.7261 23.5434 32.0781 23.5434Z" fill="#25304A"/>
<path fill-rule="evenodd" clip-rule="evenodd" d="M7.38965 82.2153L36.0496 40.2613C38.9986 36.2583 43.0406 27.8773 39.7876 21.4023C38.6896 19.2133 35.8046 15.5433 28.8276 15.5433C22.4406 15.5433 17.9306 18.5943 16.2286 23.7713H7.39665C9.73265 7.9753 24.4916 6.2983 29.3126 6.1823C29.5746 6.1753 29.8316 6.1723 30.0866 6.1723C38.7236 6.1723 45.7516 9.9803 49.3676 16.6193C53.3097 23.8603 52.5706 33.3163 47.4426 41.3233L24.7596 72.8553H54.6836V82.2153H7.38965Z" fill="white"/>
<path fill-rule="evenodd" clip-rule="evenodd" d="M28.9491 10.0082C21.2051 9.88721 14.6711 13.1542 11.8871 20.7772H13.2191C15.8811 13.8802 22.0521 10.8552 28.9491 11.0972C46.8571 11.4592 50.4871 26.9472 41.5331 40.0162L15.6381 77.8902H50.4871V76.6802H17.6961L42.6221 40.6212C52.1811 26.8272 47.8251 10.2492 28.9491 10.0082ZM28.8281 20.2932C23.9881 20.2932 20.4791 22.5922 20.4791 28.5212H2.08715C1.84515 10.2492 14.1871 1.29521 29.1911 0.933209C53.5121 0.327209 64.1611 24.4062 51.5771 43.8882L34.5151 67.6052H59.6831V86.9652H0.150146V83.6982L31.9741 37.1122C36.2091 31.4252 39.4761 20.2932 28.8281 20.2932Z" fill="#EF7B7B"/>
</svg>
