<svg width="208" height="208" viewBox="0 0 208 208" fill="none" xmlns="http://www.w3.org/2000/svg">
<path fill-rule="evenodd" clip-rule="evenodd" d="M203.175 103.587C203.175 158.588 158.588 203.175 103.587 203.175C48.5873 203.175 4 158.588 4 103.587C4 48.5873 48.5873 4 103.587 4C158.588 4 203.175 48.5873 203.175 103.587Z" fill="#FEE7B7"/>
<path fill-rule="evenodd" clip-rule="evenodd" d="M103.13 156.522C132.617 156.522 156.521 132.619 156.521 103.132C156.521 73.6448 132.617 49.7399 103.13 49.7399C73.6431 49.7399 49.74 73.6448 49.74 103.132C49.74 132.619 73.6431 156.522 103.13 156.522Z" stroke="#FEBE21" stroke-width="5.38117"/>
<path d="M68.5741 104.039C68.5741 104.039 71.871 101.758 78.2817 101.758C84.6934 101.758 87.9884 104.039 87.9884 104.039" stroke="#FEBE21" stroke-width="5.38117" stroke-linecap="round"/>
<path d="M114.139 125.076C114.139 125.076 109.427 129.379 103.016 129.379C96.6046 129.379 91.8925 125.076 91.8925 125.076" stroke="#FEBE21" stroke-width="5.38117" stroke-linecap="round"/>
<path d="M117.005 104.039C117.005 104.039 120.3 101.758 126.712 101.758C133.124 101.758 136.419 104.039 136.419 104.039" stroke="#FEBE21" stroke-width="5.38117" stroke-linecap="round"/>
<path d="M101.851 51.5336C101.851 51.5336 94.7867 60.0879 98.2101 64.8816C101.634 69.6753 110.345 70.948 113.985 68.5211" stroke="#FEBE21" stroke-width="5.38117" stroke-linecap="round"/>
<circle opacity="0.78" cx="104" cy="104" r="100" stroke="#FEBE21" stroke-width="7"/>
</svg>
