<svg width="69" height="92" viewBox="0 0 69 92" fill="none" xmlns="http://www.w3.org/2000/svg">
<path fill-rule="evenodd" clip-rule="evenodd" d="M36.2227 21.1235C25.6957 21.1235 25.6957 34.6755 36.2227 34.6755C46.6287 34.6755 46.6287 21.1235 36.2227 21.1235ZM36.2227 52.3415C21.7017 52.3415 21.7017 73.3955 36.2227 73.3955C50.8637 73.3955 50.8637 52.3415 36.2227 52.3415ZM36.2227 91.6675C1.7367 91.6675 -5.4023 56.4555 14.8047 41.9355C2.4627 28.5045 9.8437 4.06152 36.2227 4.06152C62.6007 4.06152 69.8617 28.7465 57.6397 42.0565C77.6057 56.6975 70.4657 91.6675 36.2227 91.6675Z" fill="#25304A"/>
<path fill-rule="evenodd" clip-rule="evenodd" d="M32.9726 13.1235C28.2216 13.1235 25.2416 15.0375 23.5776 16.6445C21.3206 18.8235 20.0766 21.7555 20.0766 24.8985C20.0766 32.5485 26.7216 36.6755 32.9726 36.6755C37.7016 36.6755 40.6656 34.7495 42.3196 33.1355C44.5496 30.9575 45.7776 28.0325 45.7776 24.8985C45.7776 17.2505 39.1796 13.1235 32.9726 13.1235ZM32.9726 44.3415C22.5396 44.3415 17.0816 52.1525 17.0816 59.8685C17.0816 67.5845 22.5396 75.3955 32.9726 75.3955C43.4636 75.3955 48.9526 67.5845 48.9526 59.8685C48.9526 52.1525 43.4636 44.3415 32.9726 44.3415ZM32.9726 83.6675C19.6196 83.6675 9.68864 77.5825 6.40664 67.3905C3.49664 58.3555 6.73864 48.5535 14.4726 42.9955L19.0516 39.7045L15.2366 35.5525C10.6826 30.5965 9.47164 23.4515 12.1516 17.3505C15.3016 10.1765 22.8906 6.06152 32.9726 6.06152C42.9936 6.06152 50.5526 10.1875 53.7136 17.3815C56.4246 23.5525 55.2446 30.7315 50.7066 35.6745L46.9306 39.7865L51.4326 43.0885C59.1096 48.7175 62.2846 58.5535 59.3346 67.5625C56.0346 77.6465 46.1786 83.6675 32.9726 83.6675Z" fill="white"/>
<path fill-rule="evenodd" clip-rule="evenodd" d="M32.9727 18.7201C23.4127 18.7201 23.4127 31.0621 32.9727 31.0621C42.4107 31.0621 42.4107 18.7201 32.9727 18.7201ZM32.9727 49.0911C18.4517 49.0911 18.4517 70.1461 32.9727 70.1461C47.6137 70.1461 47.6137 49.0911 32.9727 49.0911ZM32.9727 10.6131C54.2687 10.6131 54.2687 39.6541 32.9727 39.6541C11.6757 39.6541 11.6757 10.6131 32.9727 10.6131ZM32.9727 40.6211C60.4397 40.6211 60.4397 78.3741 32.9727 78.3741C5.3837 78.3741 5.3837 40.6211 32.9727 40.6211ZM27.1637 40.1371C3.8107 44.9781 5.8687 79.4631 32.9727 79.4631C59.9557 79.4631 61.8917 44.7361 38.2957 40.0161C55.8417 35.4181 53.9057 9.40313 32.9727 9.40313C12.1607 9.40313 10.2237 35.0551 27.1637 39.8951V40.1371ZM32.9727 88.4171C-1.5133 88.4171 -8.6523 53.2051 11.5547 38.6851C-0.787302 25.2541 6.5937 0.812134 32.9727 0.812134C59.3507 0.812134 66.6117 25.4961 54.3897 38.8061C74.3557 53.4481 67.2157 88.4171 32.9727 88.4171Z" fill="#EF7B7B"/>
</svg>
