<svg width="118" height="91" viewBox="0 0 118 91" fill="none" xmlns="http://www.w3.org/2000/svg">
<path fill-rule="evenodd" clip-rule="evenodd" d="M87.078 23.5434C82.238 23.5434 78.729 25.8424 78.729 31.7714H60.337C60.095 13.4994 72.437 4.54539 87.441 4.18339C111.763 3.57739 122.411 27.6564 109.827 47.1384L92.765 70.8554H117.933V90.2154H58.4V86.9484L90.224 40.3624C94.459 34.6754 97.726 23.5434 87.078 23.5434Z" fill="#25304A"/>
<path fill-rule="evenodd" clip-rule="evenodd" d="M62.3895 82.2153L91.0495 40.2613C93.9985 36.2583 98.0405 27.8773 94.7875 21.4023C93.6895 19.2133 90.8045 15.5433 83.8275 15.5433C77.4405 15.5433 72.9305 18.5943 71.2285 23.7713H62.3965C64.7325 7.9753 79.4915 6.2983 84.3125 6.1823C84.5745 6.1753 84.8315 6.1723 85.0865 6.1723C93.7235 6.1723 100.752 9.9803 104.368 16.6193C108.31 23.8603 107.571 33.3163 102.443 41.3233L79.7595 72.8553H109.684V82.2153H62.3895Z" fill="white"/>
<path fill-rule="evenodd" clip-rule="evenodd" d="M83.9491 10.0082C76.2051 9.88721 69.6711 13.1542 66.8871 20.7772H68.2191C70.8811 13.8802 77.0521 10.8552 83.9491 11.0972C101.857 11.4592 105.487 26.9472 96.5331 40.0162L70.6381 77.8902H105.487V76.6802H72.6961L97.6221 40.6212C107.181 26.8272 102.825 10.2492 83.9491 10.0082ZM83.8281 20.2932C78.9881 20.2932 75.4791 22.5922 75.4791 28.5212H57.0871C56.8451 10.2492 69.1871 1.29521 84.1911 0.933209C108.512 0.327209 119.161 24.4062 106.577 43.8882L89.5151 67.6052H114.683V86.9652H55.1501V83.6982L86.9741 37.1122C91.2091 31.4252 94.4761 20.2932 83.8281 20.2932Z" fill="#EF7B7B"/>
<path fill-rule="evenodd" clip-rule="evenodd" d="M5.06532 23.059V5.51404H37.6153V72.549H50.4413V90.215H3.97632V72.549H16.5603V23.059H5.06532Z" fill="#25304A"/>
<path fill-rule="evenodd" clip-rule="evenodd" d="M5.72656 82.2153V74.5493H18.3106V15.0593H6.81556V7.51428H29.3656V74.5493H42.1916V82.2153H5.72656Z" fill="white"/>
<path fill-rule="evenodd" clip-rule="evenodd" d="M24.3212 10.4916H9.80124V11.4596H23.2322V77.7686H8.10724V78.7366H39.6882V77.7686H24.3212V10.4916ZM1.81524 20.5346V2.26361H34.3652V68.5726H47.7962V86.9656H0.000244141V68.5726H13.3102V20.5346H1.81524Z" fill="#EF7B7B"/>
</svg>
