<svg width="52" height="46" viewBox="0 0 52 46" fill="none" xmlns="http://www.w3.org/2000/svg">
<g id="Right swirls">
<path id="Stroke 5" d="M45.289 9.9202C44.158 11.9562 41.591 12.6902 39.555 11.5592C37.01 10.1452 36.093 6.9362 37.507 4.3912C39.273 1.2092 43.285 0.0632001 46.467 1.8302C50.443 4.0392 51.876 9.0542 49.666 13.0302C46.905 18.0012 38.685 19.0302 33 19.0302H0.5" stroke="#394562" stroke-linecap="round" stroke-linejoin="round"/>
<path id="Stroke 7" d="M45.289 35.6106C44.158 33.5746 41.591 32.8406 39.555 33.9716C37.01 35.3856 36.093 38.5946 37.507 41.1396C39.273 44.3216 43.285 45.4666 46.467 43.7006C50.443 41.4906 51.876 36.4766 49.666 32.5006C46.905 27.5296 38.685 26.5006 33 26.5006H0.5" stroke="#394562" stroke-linecap="round" stroke-linejoin="round"/>
</g>
</svg>
