<svg width="70" height="91" viewBox="0 0 70 91" fill="none" xmlns="http://www.w3.org/2000/svg">
<path fill-rule="evenodd" clip-rule="evenodd" d="M47.2959 61.3852C47.2959 55.6982 43.9079 50.7372 36.7689 50.7372C29.5089 50.7372 25.8779 55.6982 25.8779 61.3852C25.8779 67.5562 30.2339 72.1542 36.7689 72.1542C43.5449 72.1542 47.2959 67.5562 47.2959 61.3852ZM57.2179 3.78723L39.3099 34.2812C57.2179 32.9492 69.0759 43.8392 69.0759 61.3852C69.0759 81.2292 54.7979 90.5462 36.7689 90.5462C18.4969 90.5462 4.21887 81.2292 4.21887 61.3852C4.21887 55.5762 5.42887 49.7692 8.69587 44.8072L33.1389 3.78723H57.2179Z" fill="#25304A"/>
<path fill-rule="evenodd" clip-rule="evenodd" d="M33.5186 42.7367C24.1626 42.7367 17.6276 49.1717 17.6276 58.3847C17.6276 67.5217 24.3106 74.1537 33.5186 74.1537C42.6616 74.1537 49.0456 67.6697 49.0456 58.3847C49.0456 49.1717 42.6616 42.7367 33.5186 42.7367ZM33.5186 82.5467C25.2356 82.5467 5.96863 80.1917 5.96863 58.3847C5.96863 52.8907 7.19863 48.2387 9.62263 44.5567L9.74163 44.3667L32.7296 5.78772H45.2326L26.9166 36.9737L36.4306 36.2667C37.2866 36.2037 38.1396 36.1717 38.9666 36.1717C52.4506 36.1717 60.8266 44.6827 60.8266 58.3847C60.8266 65.6497 58.1646 82.5467 33.5186 82.5467Z" fill="white"/>
<path fill-rule="evenodd" clip-rule="evenodd" d="M44.0459 58.1352C44.0459 51.3592 40.6579 47.4872 33.5189 47.4872C26.2589 47.4872 22.6279 51.3592 22.6279 58.1352C22.6279 65.0312 26.2589 68.9042 33.5189 68.9042C40.6579 68.9042 44.0459 65.0312 44.0459 58.1352ZM54.2099 58.1352C54.2099 70.3562 45.1349 77.1322 33.5189 77.1322C21.6599 77.1322 12.5849 70.3562 12.5849 58.1352C12.5849 46.1562 21.6599 39.3792 33.5189 39.3792C45.1349 39.3792 54.2099 46.1562 54.2099 58.1352ZM33.5189 38.2902C27.8309 38.2902 22.5079 39.8642 18.7559 42.6472L18.5149 42.5262C25.0489 31.1512 31.9449 19.8982 38.4799 8.40323H37.2699L14.3999 47.1232C12.3429 50.7532 11.3749 53.9002 11.3749 58.1352C11.3749 70.8402 21.0559 78.3422 33.5189 78.3422C45.6189 78.3422 55.4199 70.8402 55.4199 58.1352C55.4199 45.4292 45.6189 38.2902 33.5189 38.2902ZM53.9679 0.537231L36.0599 31.0312C53.9679 29.6992 65.8259 40.2262 65.8259 58.1352C65.8259 78.3422 51.9109 87.2962 33.5189 87.2962C14.8839 87.2962 0.968872 78.3422 0.968872 58.1352C0.968872 52.3262 2.17887 46.5192 5.44587 41.5572L29.8889 0.537231H53.9679Z" fill="#EF7B7B"/>
</svg>
