<svg width="68" height="89" viewBox="0 0 68 89" fill="none" xmlns="http://www.w3.org/2000/svg">
<path fill-rule="evenodd" clip-rule="evenodd" d="M27.9413 54.4555H41.4943V41.7505L43.0663 28.8035H42.8243L27.9413 54.4555ZM60.7333 88.2155H40.6463V72.1215H3.74133V62.6845L37.5013 3.51453H60.7333V54.4555H67.9933V72.1215H60.7333V88.2155Z" fill="#25304A"/>
<path fill-rule="evenodd" clip-rule="evenodd" d="M16.0097 56.4555H43.2437V39.0535L45.4597 20.8035H36.6947L16.0097 56.4555ZM42.3967 80.2155V64.1215H5.49072V61.0105L37.1547 5.51453H52.4837V56.4555H59.7427V64.1215H52.4837V80.2155H42.3967Z" fill="white"/>
<path fill-rule="evenodd" clip-rule="evenodd" d="M26.0225 51.2055H38.2445V38.5005L39.8165 25.5535H39.5745L26.0225 51.2055ZM12.1075 59.7975L40.1795 9.70153H46.7135V59.7975H12.1075ZM47.9235 76.8575V60.7655H56.9995V59.7975H47.9235V8.73353H39.5745L10.8975 59.4345V60.7655H46.7135V76.8575H47.9235ZM57.4835 84.9655H37.3965V68.8715H0.491455V59.4345L34.2515 0.264526H57.4835V51.2055H64.7435V68.8715H57.4835V84.9655Z" fill="#EF7B7B"/>
</svg>
