<svg width="122" height="92" viewBox="0 0 122 92" fill="none" xmlns="http://www.w3.org/2000/svg">
<path fill-rule="evenodd" clip-rule="evenodd" d="M5.06532 23.059V5.51404H37.6153V72.549H50.4413V90.215H3.97632V72.549H16.5603V23.059H5.06532Z" fill="#25304A"/>
<path fill-rule="evenodd" clip-rule="evenodd" d="M5.72656 82.2153V74.5493H18.3106V15.0593H6.81556V7.51428H29.3656V74.5493H42.1916V82.2153H5.72656Z" fill="white"/>
<path fill-rule="evenodd" clip-rule="evenodd" d="M24.3212 10.4916H9.80124V11.4596H23.2322V77.7686H8.10724V78.7366H39.6882V77.7686H24.3212V10.4916ZM1.81524 20.5346V2.26361H34.3652V68.5726H47.7962V86.9656H0.000244141V68.5726H13.3102V20.5346H1.81524Z" fill="#EF7B7B"/>
<path fill-rule="evenodd" clip-rule="evenodd" d="M101.273 62.2641V33.4651C101.273 26.8101 96.3114 23.3011 89.8984 23.3011C83.7274 23.3011 78.8874 26.8101 78.8874 33.4651V62.2641C78.8874 69.1601 83.7274 72.6701 89.8984 72.6701C96.3114 72.6701 101.273 69.1601 101.273 62.2641ZM121.722 33.1021V62.7471C121.722 81.2611 107.444 91.9101 89.8984 91.9101C72.7164 91.9101 58.3174 81.2611 58.3174 62.7471V33.1021C58.3174 14.5891 72.7164 3.9411 89.8984 3.9411C107.444 3.9411 121.722 14.5891 121.722 33.1021Z" fill="#25304A"/>
<path fill-rule="evenodd" clip-rule="evenodd" d="M86.6484 15.3012C77.2214 15.3012 70.6374 21.5362 70.6374 30.4652V59.2642C70.6374 68.4792 77.0724 74.6702 86.6484 74.6702C96.4424 74.6702 103.023 68.4792 103.023 59.2642V30.4652C103.023 21.5362 96.2904 15.3012 86.6484 15.3012ZM86.6484 83.9092C73.4184 83.9092 60.0674 76.4392 60.0674 59.7472V30.1022C60.0674 13.4112 73.4184 5.94122 86.6484 5.94122C100 5.94122 113.472 13.4112 113.472 30.1022V59.7472C113.472 76.4392 100 83.9092 86.6484 83.9092Z" fill="white"/>
<path fill-rule="evenodd" clip-rule="evenodd" d="M98.0234 59.0141V30.2151C98.0234 23.5601 93.0614 20.0511 86.6484 20.0511C80.4774 20.0511 75.6374 23.5601 75.6374 30.2151V59.0141C75.6374 65.9101 80.4774 69.4201 86.6484 69.4201C93.0614 69.4201 98.0234 65.9101 98.0234 59.0141ZM107.461 30.2151V59.0141C107.461 71.3561 98.2644 78.4951 86.6484 78.4951C75.3954 78.4951 65.9574 71.3561 65.9574 59.0141V30.2151C65.9574 17.7521 75.3954 10.8551 86.6484 10.8551C98.2644 10.8551 107.461 17.7521 107.461 30.2151ZM108.913 59.0141V30.2151C108.913 17.1471 98.8704 9.7661 86.6484 9.7661C74.7914 9.7661 64.6264 17.1471 64.6264 30.2151V59.0141C64.6264 71.9611 74.7914 79.5841 86.6484 79.5841C98.8704 79.5841 108.913 71.9611 108.913 59.0141ZM118.472 29.8521V59.4971C118.472 78.0111 104.194 88.6601 86.6484 88.6601C69.4664 88.6601 55.0674 78.0111 55.0674 59.4971V29.8521C55.0674 11.3391 69.4664 0.691101 86.6484 0.691101C104.194 0.691101 118.472 11.3391 118.472 29.8521Z" fill="#EF7B7B"/>
</svg>
